<svg width="24" height="24" viewBox="0 0 24 24" fill="none" xmlns="http://www.w3.org/2000/svg">
  <rect x="2" y="2" width="20" height="20" rx="5" fill="#111827"/>
  <path d="M7 16.2C8.2 17.35 9.84 18 11.75 18C15.22 18 17.7 15.57 17.7 12.08C17.7 8.87 15.4 6.5 12.02 6.5C9.62 6.5 7.78 7.61 6.78 9.35L8.52 10.43C9.18 9.17 10.33 8.5 11.95 8.5C14.08 8.5 15.6 9.98 15.6 12.12C15.6 14.42 13.98 15.98 11.77 15.98C10.56 15.98 9.57 15.63 8.84 14.96L11.75 12.36V10.65H6.25V12.55H9.08L7 14.36V16.2Z" fill="white"/>
</svg>
